<svg height="480pt" viewBox="0 0 480 480" width="480pt" xmlns="http://www.w3.org/2000/svg" xmlns:xlink="http://www.w3.org/1999/xlink"><linearGradient id="a"><stop offset="0" stop-color="#e93e3a"/><stop offset=".35" stop-color="#ed683c"/><stop offset=".7" stop-color="#f3903f"/><stop offset="1" stop-color="#fdc70c"/></linearGradient><linearGradient id="b" gradientUnits="userSpaceOnUse" x1="297.512" x2="291.392" xlink:href="#a" y1="494.464" y2="-17.312"/><linearGradient id="c" gradientUnits="userSpaceOnUse" x1="178.776" x2="172.648" xlink:href="#a" y1="495.888" y2="-15.888"/><linearGradient id="d" gradientUnits="userSpaceOnUse" x1="189.616" x2="183.488" xlink:href="#a" y1="495.76" y2="-16.016"/><linearGradient id="e" gradientUnits="userSpaceOnUse" x1="146.968" x2="140.848" xlink:href="#a" y1="496.264" y2="-15.504"/><linearGradient id="f" gradientUnits="userSpaceOnUse" x1="377.984" x2="371.856" xlink:href="#a" y1="493.504" y2="-18.272"/><linearGradient id="g" gradientUnits="userSpaceOnUse" x1="409.976" x2="403.856" xlink:href="#a" y1="493.12" y2="-18.656"/><linearGradient id="h" gradientUnits="userSpaceOnUse" x1="441.968" x2="435.848" xlink:href="#a" y1="492.736" y2="-19.04"/><linearGradient id="i" gradientUnits="userSpaceOnUse" x1="379.128" x2="373.008" xlink:href="#a" y1="493.488" y2="-18.288"/><linearGradient id="j" gradientUnits="userSpaceOnUse" x1="411.128" x2="405" xlink:href="#a" y1="493.104" y2="-18.664"/><linearGradient id="k" gradientUnits="userSpaceOnUse" x1="443.12" x2="436.992" xlink:href="#a" y1="492.72" y2="-19.048"/><linearGradient id="l" gradientUnits="userSpaceOnUse" x1="380.28" x2="374.152" xlink:href="#a" y1="493.472" y2="-18.296"/><linearGradient id="m" gradientUnits="userSpaceOnUse" x1="412.272" x2="406.152" xlink:href="#a" y1="493.096" y2="-18.68"/><linearGradient id="n" gradientUnits="userSpaceOnUse" x1="444.272" x2="438.144" xlink:href="#a" y1="492.712" y2="-19.064"/><linearGradient id="o" gradientUnits="userSpaceOnUse" x1="349.144" x2="343.024" xlink:href="#a" y1="493.848" y2="-17.928"/><linearGradient id="p" gradientUnits="userSpaceOnUse" x1="253.448" x2="247.32" xlink:href="#a" y1="494.992" y2="-16.784"/><linearGradient id="q" gradientUnits="userSpaceOnUse" x1="285.44" x2="279.312" xlink:href="#a" y1="494.608" y2="-17.16"/><linearGradient id="r" gradientUnits="userSpaceOnUse" x1="317.432" x2="311.312" xlink:href="#a" y1="494.224" y2="-17.544"/><linearGradient id="s" gradientUnits="userSpaceOnUse" x1="381.424" x2="375.304" xlink:href="#a" y1="493.464" y2="-18.312"/><linearGradient id="t" gradientUnits="userSpaceOnUse" x1="413.424" x2="407.296" xlink:href="#a" y1="493.08" y2="-18.696"/><linearGradient id="u" gradientUnits="userSpaceOnUse" x1="445.416" x2="439.296" xlink:href="#a" y1="492.696" y2="-19.08"/><linearGradient id="v" gradientUnits="userSpaceOnUse" x1="332.696" x2="326.568" xlink:href="#a" y1="494.048" y2="-17.728"/><linearGradient id="w" gradientUnits="userSpaceOnUse" x1="408.92" x2="402.8" xlink:href="#a" y1="493.136" y2="-18.64"/><linearGradient id="x" gradientUnits="userSpaceOnUse" x1="408.544" x2="402.416" xlink:href="#a" y1="493.136" y2="-18.64"/><linearGradient id="y" gradientUnits="userSpaceOnUse" x1="121.032" x2="114.912" xlink:href="#a" y1="496.576" y2="-15.2"/><linearGradient id="z" gradientUnits="userSpaceOnUse" x1="61.76" x2="55.632" xlink:href="#a" y1="497.288" y2="-14.488"/><linearGradient id="A" gradientUnits="userSpaceOnUse" x1="93.752" x2="87.632" xlink:href="#a" y1="496.904" y2="-14.872"/><linearGradient id="B" gradientUnits="userSpaceOnUse" x1="125.752" x2="119.624" xlink:href="#a" y1="496.52" y2="-15.256"/><linearGradient id="C" gradientUnits="userSpaceOnUse" x1="157.744" x2="151.624" xlink:href="#a" y1="496.136" y2="-15.632"/><path d="m288 360h16v16h-16zm0 0" fill="url(#b)"/><path d="m248 432h-17.222656l-5.335938-32h86.558594c22.082031-.027344 39.972656-17.917969 40-40v-192c-.027344-22.082031-17.917969-39.972656-40-40h-272c-22.082031.027344-39.9726562 17.917969-40 40v192c.0273438 22.082031 17.917969 39.972656 40 40h86.558594l-5.335938 32h-17.222656c-8.835938 0-16 7.164062-16 16v16c0 8.835938 7.164062 16 16 16h144c8.835938 0 16-7.164062 16-16v-16c0-8.835938-7.164062-16-16-16zm-208-288h272c13.253906 0 24 10.746094 24 24v168h-72.398438c27.847657-43.519531 19.523438-100.886719-19.546874-134.699219-39.070313-33.808593-97.039063-33.808593-136.109376 0-39.070312 33.8125-47.394531 91.179688-19.546874 134.699219h-72.398438v-168c0-13.253906 10.746094-24 24-24zm68.183594 192c-11.304688-13.628906-18.214844-30.363281-19.816406-48h7.632812v-16h-7.59375c.921875-9.976562 3.554688-19.71875 7.785156-28.800781l6.527344 3.769531 8-13.855469-6.527344-3.769531c5.796875-8.179688 12.933594-15.316406 21.113282-21.113281l3.765624 6.53125 13.859376-8-3.769532-6.53125c9.089844-4.246094 18.847656-6.894531 28.839844-7.824219v7.59375h16v-7.59375c9.988281.917969 19.746094 3.550781 28.839844 7.785156l-3.769532 6.527344 13.859376 8 3.765624-6.527344c8.179688 5.796875 15.316407 12.933594 21.113282 21.113282l-6.527344 3.765624 8 13.859376 6.527344-3.769532c4.230468 9.082032 6.863281 18.824219 7.785156 28.800782h-7.59375v16h7.632812c-1.601562 17.632812-8.511718 34.371093-19.816406 48zm-92.183594 24v-8h320v8c0 13.253906-10.746094 24-24 24h-272c-13.253906 0-24-10.746094-24-24zm126.777344 40h66.445312l5.335938 32h-77.117188zm105.222656 64h-144v-16h144zm0 0" fill="url(#c)"/><path d="m210.34375 234.34375-24.0625 24.054688c-3.203125-1.5625-6.71875-2.382813-10.28125-2.398438-13.253906 0-24 10.746094-24 24s10.746094 24 24 24 24-10.746094 24-24c-.015625-3.5625-.835938-7.078125-2.398438-10.28125l24.0625-24.0625zm-34.34375 53.65625c-4.417969 0-8-3.582031-8-8s3.582031-8 8-8 8 3.582031 8 8-3.582031 8-8 8zm0 0" fill="url(#d)"/><path d="m176 216c-35.328125.039062-63.960938 28.671875-64 64h16c.027344-26.5 21.5-47.972656 48-48zm0 0" fill="url(#e)"/><path d="m368 312h16v32h-16zm0 0" fill="url(#f)"/><path d="m400 312h16v32h-16zm0 0" fill="url(#g)"/><path d="m432 312h16v32h-16zm0 0" fill="url(#h)"/><path d="m368 216h16v32h-16zm0 0" fill="url(#i)"/><path d="m400 216h16v32h-16zm0 0" fill="url(#j)"/><path d="m432 216h16v32h-16zm0 0" fill="url(#k)"/><path d="m368 120h16v32h-16zm0 0" fill="url(#l)"/><path d="m400 120h16v32h-16zm0 0" fill="url(#m)"/><path d="m432 120h16v32h-16zm0 0" fill="url(#n)"/><path d="m464 80c8.835938 0 16-7.164062 16-16v-48c0-8.835938-7.164062-16-16-16h-240c-8.835938 0-16 7.164062-16 16v48c0 8.835938 7.164062 16 16 16h8v16h-8c-8.835938 0-16 7.164062-16 16h256v48h-96v16h40v16h-40v16h96v48h-96v16h40v16h-40v16h96v48h-96v16h40v16c0 4.417969 3.582031 8 8 8h32c4.417969 0 8-3.582031 8-8v-16h8c8.835938 0 16-7.164062 16-16v-48c0-8.835938-7.164062-16-16-16h-8v-16h8c8.835938 0 16-7.164062 16-16v-48c0-8.835938-7.164062-16-16-16h-8v-16h8c8.835938 0 16-7.164062 16-16v-48c0-8.835938-7.164062-16-16-16h-8v-16zm-24 296h-16v-8h16zm0-88h-16v-16h16zm0-96h-16v-16h16zm-216-176h240v48h-240zm184 64v16h-128v-16zm-160 0h16v16h-16zm192 16h-16v-16h16zm0 0" fill="url(#o)"/><path d="m240 32h16v16h-16zm0 0" fill="url(#p)"/><path d="m272 32h16v16h-16zm0 0" fill="url(#q)"/><path d="m304 32h16v16h-16zm0 0" fill="url(#r)"/><path d="m368 24h16v32h-16zm0 0" fill="url(#s)"/><path d="m400 24h16v32h-16zm0 0" fill="url(#t)"/><path d="m432 24h16v32h-16zm0 0" fill="url(#u)"/><path d="m368 448h-88v16h96c4.417969 0 8-3.582031 8-8v-48h-16zm0 0" fill="url(#v)"/><path d="m400 408h16v16h-16zm0 0" fill="url(#w)"/><path d="m400 440h16v16h-16zm0 0" fill="url(#x)"/><path d="m56 56h136v-16h-144c-4.417969 0-8 3.582031-8 8v64h16zm0 0" fill="url(#y)"/><path d="m48 8h16v16h-16zm0 0" fill="url(#z)"/><path d="m80 8h16v16h-16zm0 0" fill="url(#A)"/><path d="m112 8h16v16h-16zm0 0" fill="url(#B)"/><path d="m144 8h16v16h-16zm0 0" fill="url(#C)"/></svg>